<?xml version="1.0" encoding="UTF-8" standalone="no"?>
<!DOCTYPE svg PUBLIC "-//W3C//DTD SVG 1.1//EN" "http://www.w3.org/Graphics/SVG/1.1/DTD/svg11.dtd">
<svg width="100%" height="100%" viewBox="0 0 682 515" version="1.1" xmlns="http://www.w3.org/2000/svg" xmlns:xlink="http://www.w3.org/1999/xlink" xml:space="preserve" xmlns:serif="http://www.serif.com/" style="fill-rule:evenodd;clip-rule:evenodd;stroke-linecap:round;stroke-linejoin:round;stroke-miterlimit:1.5;">
    <g transform="matrix(1,0,0,1,-39.25,-39.707)">
        <g transform="matrix(7.93016e-17,-1.42857,0.727273,4.03717e-17,34.5455,1271.43)">
            <path d="M693.993,186.254L693.993,200L680,172.5L693.993,145L693.993,158.746L778,158.746L778,145L792,172.5L778,200L778,186.254L693.993,186.254Z" style="fill:rgb(179,187,229);"/>
        </g>
        <g transform="matrix(0.333333,0,0,5.5,13.3333,-110)">
            <rect x="140" y="60" width="180" height="40" style="fill:rgb(255,160,0);"/>
        </g>
        <g transform="matrix(1.5,0,0,0.916667,-60,91.2083)">
            <g transform="matrix(0.222222,0,0,4.275,168.889,-47)">
                <rect x="140" y="60" width="180" height="40" style="fill:rgb(240,241,250);"/>
            </g>
            <g transform="matrix(0.222222,0,0,3.175,168.889,63)">
                <rect x="140" y="60" width="180" height="40" style="fill:rgb(179,187,229);"/>
            </g>
            <g transform="matrix(0.222222,0,0,2.125,168.889,168)">
                <rect x="140" y="60" width="180" height="40" style="fill:rgb(63,81,181);"/>
            </g>
        </g>
        <g transform="matrix(1.5,0,0,0.916667,40,91.2083)">
            <g transform="matrix(0.222222,0,0,8.325,168.889,-452)">
                <rect x="140" y="60" width="180" height="40" style="fill:rgb(240,241,250);"/>
            </g>
            <g transform="matrix(0.222222,0,0,5.55,168.889,-174.5)">
                <rect x="140" y="60" width="180" height="40" style="fill:rgb(179,187,229);"/>
            </g>
            <g transform="matrix(0.222222,0,0,3.25,168.889,55.5)">
                <rect x="140" y="60" width="180" height="40" style="fill:rgb(63,81,181);"/>
            </g>
        </g>
        <g transform="matrix(1.5,0,0,0.916667,140,91.2083)">
            <g transform="matrix(0.222222,0,0,10.725,168.889,-692)">
                <rect x="140" y="60" width="180" height="40" style="fill:rgb(240,241,250);"/>
            </g>
            <g transform="matrix(0.222222,0,0,7.7,168.889,-389.5)">
                <rect x="140" y="60" width="180" height="40" style="fill:rgb(179,187,229);"/>
            </g>
            <g transform="matrix(0.222222,0,0,5.55,168.889,-174.5)">
                <rect x="140" y="60" width="180" height="40" style="fill:rgb(63,81,181);"/>
            </g>
        </g>
        <g transform="matrix(1.5,0,0,0.916667,240,91.2083)">
            <g transform="matrix(0.222222,0,0,3.05,168.889,75.5)">
                <rect x="140" y="60" width="180" height="40" style="fill:rgb(240,241,250);"/>
            </g>
            <g transform="matrix(0.222222,0,0,2.1,168.889,170.5)">
                <rect x="140" y="60" width="180" height="40" style="fill:rgb(179,187,229);"/>
            </g>
            <g transform="matrix(0.222222,0,0,1.625,168.889,218)">
                <rect x="140" y="60" width="180" height="40" style="fill:rgb(63,81,181);"/>
            </g>
        </g>
        <g transform="matrix(1.5,0,0,0.916667,340,91.2083)">
            <g transform="matrix(0.222222,0,0,4.44545,168.889,-64.0455)">
                <rect x="140" y="60" width="180" height="40" style="fill:rgb(240,241,250);"/>
            </g>
            <g transform="matrix(0.222222,0,0,1.77273,168.889,203.227)">
                <rect x="140" y="60" width="180" height="40" style="fill:rgb(179,187,229);"/>
            </g>
            <g transform="matrix(0.222222,0,0,1.06364,168.889,274.136)">
                <rect x="140" y="60" width="180" height="40" style="fill:rgb(63,81,181);"/>
            </g>
        </g>
        <g transform="matrix(1,0,0,1,200,379.935)">
            <text x="51.316px" y="95.658px" style="font-family:'Arial-BoldMT', 'Arial', sans-serif;font-weight:700;font-size:16px;">circe</text>
        </g>
        <g transform="matrix(1,0,0,1,20,380.136)">
            <text x="49.551px" y="95.658px" style="font-family:'Arial-BoldMT', 'Arial', sans-serif;font-weight:700;font-size:16px;">borer</text>
        </g>
        <g transform="matrix(1,0,0,1,120,159.726)">
            <text x="58.66px" y="95.868px" style="font-family:'ArialMT', 'Arial', sans-serif;font-size:16px;">worse</text>
        </g>
        <g transform="matrix(1,0,0,1,120,99.7256)">
            <text x="59.543px" y="95.868px" style="font-family:'ArialMT', 'Arial', sans-serif;font-size:16px;">better</text>
        </g>
        <g transform="matrix(1,0,0,1,1.37264e-14,440.304)">
            <text x="71.324px" y="77.579px" style="font-family:'ArialMT', 'Arial', sans-serif;font-size:16px;">borer</text>
            <text x="56.641px" y="95.579px" style="font-family:'ArialMT', 'Arial', sans-serif;font-size:16px;">speed-up</text>
            <text x="69.992px" y="113.579px" style="font-family:'ArialMT', 'Arial', sans-serif;font-size:16px;">factor</text>
        </g>
        <g transform="matrix(1,0,0,1,1.42109e-14,-20)">
            <text x="40px" y="77.18px" style="font-family:'Arial-BoldMT', 'Arial', sans-serif;font-weight:700;font-size:24px;">JSON Decoding Performance</text>
            <text x="40px" y="107.18px" style="font-family:'ArialMT', 'Arial', sans-serif;font-size:16px;">Decoding throughput over 18 diverse,</text>
            <text x="40px" y="125.18px" style="font-family:'ArialMT', 'Arial', sans-serif;font-size:16px;">real-world JSON data ﬁles</text>
        </g>
        <g transform="matrix(1,0,0,1,280,380.136)">
            <text x="57.98px" y="95.658px" style="font-family:'Arial-BoldMT', 'Arial', sans-serif;font-weight:700;font-size:16px;">Jackson</text>
        </g>
        <g transform="matrix(1,0,0,1,380,380.136)">
            <text x="56.215px" y="87.397px" style="font-family:'Arial-BoldMT', 'Arial', sans-serif;font-weight:700;font-size:16px;">Jsoniter-</text>
            <text x="69.094px" y="103.92px" style="font-family:'Arial-BoldMT', 'Arial', sans-serif;font-weight:700;font-size:16px;">Scala</text>
        </g>
        <g transform="matrix(1,0,0,1,600,380.136)">
            <text x="42.262px" y="95.658px" style="font-family:'Arial-BoldMT', 'Arial', sans-serif;font-weight:700;font-size:16px;">µPickle</text>
        </g>
        <g transform="matrix(1,0,0,1,500,379.731)">
            <text x="48.652px" y="95.861px" style="font-family:'Arial-BoldMT', 'Arial', sans-serif;font-weight:700;font-size:16px;">spray</text>
        </g>
        <g transform="matrix(1,0,0,1,100,440.152)">
            <text x="64.887px" y="77.73px" style="font-family:'ArialMT', 'Arial', sans-serif;font-size:16px;">min:</text>
            <text x="64.879px" y="95.73px" style="font-family:'ArialMT', 'Arial', sans-serif;font-size:16px;">avg:</text>
            <text x="62.664px" y="113.73px" style="font-family:'ArialMT', 'Arial', sans-serif;font-size:16px;">max:</text>
        </g>
        <g transform="matrix(1,0,0,1,200,440)">
            <text x="54.43px" y="77.73px" style="font-family:'ArialMT', 'Arial', sans-serif;font-size:16px;">1.40</text>
            <text x="54.43px" y="95.73px" style="font-family:'Arial-BoldMT', 'Arial', sans-serif;font-weight:700;font-size:16px;">1.89</text>
            <text x="54.43px" y="113.73px" style="font-family:'ArialMT', 'Arial', sans-serif;font-size:16px;">2.84</text>
        </g>
        <g transform="matrix(1,0,0,1,300,440)">
            <text x="54.43px" y="77.73px" style="font-family:'ArialMT', 'Arial', sans-serif;font-size:16px;">0.72</text>
            <text x="54.43px" y="95.73px" style="font-family:'Arial-BoldMT', 'Arial', sans-serif;font-weight:700;font-size:16px;">1.08</text>
            <text x="54.43px" y="113.73px" style="font-family:'ArialMT', 'Arial', sans-serif;font-size:16px;">1.84</text>
        </g>
        <g transform="matrix(1,0,0,1,500,440)">
            <text x="54.43px" y="77.73px" style="font-family:'ArialMT', 'Arial', sans-serif;font-size:16px;">1.96</text>
            <text x="54.43px" y="95.73px" style="font-family:'Arial-BoldMT', 'Arial', sans-serif;font-weight:700;font-size:16px;">2.86</text>
            <text x="54.43px" y="113.73px" style="font-family:'ArialMT', 'Arial', sans-serif;font-size:16px;">3.68</text>
        </g>
        <g transform="matrix(1,0,0,1,400,440)">
            <text x="54.43px" y="77.73px" style="font-family:'ArialMT', 'Arial', sans-serif;font-size:16px;">0.56</text>
            <text x="54.43px" y="95.73px" style="font-family:'Arial-BoldMT', 'Arial', sans-serif;font-weight:700;font-size:16px;">0.78</text>
            <text x="54.43px" y="113.73px" style="font-family:'ArialMT', 'Arial', sans-serif;font-size:16px;">1.08</text>
        </g>
        <g transform="matrix(1,0,0,1,600,440)">
            <text x="54.43px" y="77.73px" style="font-family:'ArialMT', 'Arial', sans-serif;font-size:16px;">1.35</text>
            <text x="54.43px" y="95.73px" style="font-family:'Arial-BoldMT', 'Arial', sans-serif;font-weight:700;font-size:16px;">3.37</text>
            <text x="54.43px" y="113.73px" style="font-family:'ArialMT', 'Arial', sans-serif;font-size:16px;">5.67</text>
        </g>
        <g transform="matrix(1.21429,0,0,4.4,273.143,-880)">
            <path d="M368,250L-192,250" style="fill:none;stroke:rgb(255,160,0);stroke-width:0.46px;stroke-dasharray:1.86,1.86,0,0;"/>
        </g>
    </g>
</svg>
