<?xml version="1.0" encoding="UTF-8" standalone="no"?><!DOCTYPE svg PUBLIC "-//W3C//DTD SVG 1.1//EN" "http://www.w3.org/Graphics/SVG/1.1/DTD/svg11.dtd"><svg width="100%" height="100%" viewBox="0 0 682 535" version="1.1" xmlns="http://www.w3.org/2000/svg" xmlns:xlink="http://www.w3.org/1999/xlink" xml:space="preserve" xmlns:serif="http://www.serif.com/" style="fill-rule:evenodd;clip-rule:evenodd;stroke-linecap:round;stroke-linejoin:round;stroke-miterlimit:1.5;"><path d="M130.753,240.302l9.997,0l-20,19.991l-20,-19.991l9.997,0l0,-120.009l-9.997,0l20,-20l20,20l-9.997,0l0,120.009Z" style="fill:#b3bbe5;"/><rect x="20.75" y="180.293" width="60" height="220" style="fill:#ffa000;"/><g><rect x="200.75" y="267.763" width="60" height="132.53" style="fill:#f0f1fa;"/><rect x="200.75" y="298.441" width="60" height="101.852" style="fill:#b3bbe5;"/><rect x="200.75" y="333.593" width="60" height="66.7" style="fill:#3f51b5;"/></g><g><rect x="300.75" y="158.535" width="60" height="241.758" style="fill:#f0f1fa;"/><rect x="300.75" y="216.96" width="60" height="183.333" style="fill:#b3bbe5;"/><rect x="300.75" y="268.556" width="60" height="131.737" style="fill:#3f51b5;"/></g><g><rect x="400.75" y="20.983" width="60" height="379.31" style="fill:#f0f1fa;"/><rect x="400.75" y="141.469" width="60" height="258.824" style="fill:#b3bbe5;"/><rect x="400.75" y="237.33" width="60" height="162.963" style="fill:#3f51b5;"/></g><g><rect x="500.75" y="307.856" width="60" height="92.437" style="fill:#f0f1fa;"/><rect x="500.75" y="332.182" width="60" height="68.111" style="fill:#b3bbe5;"/><rect x="500.75" y="348.771" width="60" height="51.522" style="fill:#3f51b5;"/></g><g><rect x="600.75" y="251.644" width="60" height="148.649" style="fill:#f0f1fa;"/><rect x="600.75" y="344.455" width="60" height="55.838" style="fill:#b3bbe5;"/><rect x="600.75" y="369.737" width="60" height="30.556" style="fill:#3f51b5;"/></g><text x="212.066px" y="435.886px" style="font-family:'Arial-BoldMT', 'Arial', sans-serif;font-weight:700;font-size:16px;">circe</text><text x="30.301px" y="436.088px" style="font-family:'Arial-BoldMT', 'Arial', sans-serif;font-weight:700;font-size:16px;">borer</text><text x="139.41px" y="215.886px" style="font-family:'ArialMT', 'Arial', sans-serif;font-size:16px;">worse</text><text x="140.293px" y="155.886px" style="font-family:'ArialMT', 'Arial', sans-serif;font-size:16px;">better</text><g transform="matrix(1,0,0,1,-39.25,420.445)"><text x="71.324px" y="77.579px" style="font-family:'ArialMT', 'Arial', sans-serif;font-size:16px;">borer</text><text x="56.641px" y="95.579px" style="font-family:'ArialMT', 'Arial', sans-serif;font-size:16px;">speed-up</text><text x="69.992px" y="113.579px" style="font-family:'ArialMT', 'Arial', sans-serif;font-size:16px;">factor</text></g><g transform="matrix(1,0,0,1,-39.25,-59.707)"><text x="40px" y="77.18px" style="font-family:'Arial-BoldMT', 'Arial', sans-serif;font-weight:700;font-size:24px;">JSON Decoding Performance</text><text x="40px" y="107.18px" style="font-family:'ArialMT', 'Arial', sans-serif;font-size:16px;">Decoding throughput over 18 diverse,</text><text x="40px" y="125.18px" style="font-family:'ArialMT', 'Arial', sans-serif;font-size:16px;">real-world JSON data ﬁles</text></g><text x="298.73px" y="436.088px" style="font-family:'Arial-BoldMT', 'Arial', sans-serif;font-weight:700;font-size:16px;">Jackson</text><g transform="matrix(1,0,0,1,340.75,347.429)"><text x="56.215px" y="71.453px" style="font-family:'Arial-BoldMT', 'Arial', sans-serif;font-weight:700;font-size:16px;">Jsoniter-</text><text x="69.094px" y="87.977px" style="font-family:'Arial-BoldMT', 'Arial', sans-serif;font-weight:700;font-size:16px;">Scala</text></g><text x="603.012px" y="436.088px" style="font-family:'Arial-BoldMT', 'Arial', sans-serif;font-weight:700;font-size:16px;">µPickle</text><text x="509.402px" y="435.885px" style="font-family:'Arial-BoldMT', 'Arial', sans-serif;font-weight:700;font-size:16px;">spray</text><g transform="matrix(1,0,0,1,60.75,420.293)"><text x="64.887px" y="77.73px" style="font-family:'ArialMT', 'Arial', sans-serif;font-size:16px;">min:</text><text x="64.879px" y="95.73px" style="font-family:'ArialMT', 'Arial', sans-serif;font-size:16px;">avg:</text><text x="62.664px" y="113.73px" style="font-family:'ArialMT', 'Arial', sans-serif;font-size:16px;">max:</text></g><text x="200.067px" y="454.727px" style="font-family:'ArialMT', 'Arial', sans-serif;font-size:12px;">0.12.0-RC2</text><text x="34.514px" y="454.928px" style="font-family:'ArialMT', 'Arial', sans-serif;font-size:12px;">0.1<tspan x="50.305px 56.979px " y="454.928px 454.928px ">1.</tspan>1</text><text x="317.405px" y="454.928px" style="font-family:'ArialMT', 'Arial', sans-serif;font-size:12px;">2.9.9</text><text x="414.068px" y="454.928px" style="font-family:'ArialMT', 'Arial', sans-serif;font-size:12px;">0.55.0</text><text x="617.405px" y="454.928px" style="font-family:'ArialMT', 'Arial', sans-serif;font-size:12px;">0.7.5</text><text x="517.405px" y="454.725px" style="font-family:'ArialMT', 'Arial', sans-serif;font-size:12px;">1.3.5</text><g transform="matrix(1,0,0,1,160.75,420.141)"><text x="54.43px" y="77.73px" style="font-family:'ArialMT', 'Arial', sans-serif;font-size:16px;">1.66</text><text x="54.43px" y="95.73px" style="font-family:'Arial-BoldMT', 'Arial', sans-serif;font-weight:700;font-size:16px;">2.16</text><text x="54.43px" y="113.73px" style="font-family:'ArialMT', 'Arial', sans-serif;font-size:16px;">3.30</text></g><g transform="matrix(1,0,0,1,260.75,420.141)"><text x="54.43px" y="77.73px" style="font-family:'ArialMT', 'Arial', sans-serif;font-size:16px;">0.91</text><text x="54.43px" y="95.73px" style="font-family:'Arial-BoldMT', 'Arial', sans-serif;font-weight:700;font-size:16px;">1.20</text><text x="54.43px" y="113.73px" style="font-family:'ArialMT', 'Arial', sans-serif;font-size:16px;">1.67</text></g><g transform="matrix(1,0,0,1,460.75,420.141)"><text x="54.43px" y="77.73px" style="font-family:'ArialMT', 'Arial', sans-serif;font-size:16px;">2.38</text><text x="54.43px" y="95.73px" style="font-family:'Arial-BoldMT', 'Arial', sans-serif;font-weight:700;font-size:16px;">3.23</text><text x="54.43px" y="113.73px" style="font-family:'ArialMT', 'Arial', sans-serif;font-size:16px;">4.27</text></g><g transform="matrix(1,0,0,1,360.75,420.141)"><text x="54.43px" y="77.73px" style="font-family:'ArialMT', 'Arial', sans-serif;font-size:16px;">0.58</text><text x="54.43px" y="95.73px" style="font-family:'Arial-BoldMT', 'Arial', sans-serif;font-weight:700;font-size:16px;">0.85</text><text x="54.43px" y="113.73px" style="font-family:'ArialMT', 'Arial', sans-serif;font-size:16px;">1.35</text></g><g transform="matrix(1,0,0,1,560.75,420.141)"><text x="54.43px" y="77.73px" style="font-family:'ArialMT', 'Arial', sans-serif;font-size:16px;">1.48</text><text x="54.43px" y="95.73px" style="font-family:'Arial-BoldMT', 'Arial', sans-serif;font-weight:700;font-size:16px;">3.94</text><text x="54.43px" y="113.73px" style="font-family:'ArialMT', 'Arial', sans-serif;font-size:16px;">7.20</text></g><path d="M680.75,180.293l-680,0" style="fill:none;stroke:#ffa000;stroke-width:1.5px;stroke-dasharray:6,6,0,0;"/></svg>