<?xml version="1.0" encoding="UTF-8" standalone="no"?><!DOCTYPE svg PUBLIC "-//W3C//DTD SVG 1.1//EN" "http://www.w3.org/Graphics/SVG/1.1/DTD/svg11.dtd"><svg width="100%" height="100%" viewBox="0 0 682 541" version="1.1" xmlns="http://www.w3.org/2000/svg" xmlns:xlink="http://www.w3.org/1999/xlink" xml:space="preserve" xmlns:serif="http://www.serif.com/" style="fill-rule:evenodd;clip-rule:evenodd;stroke-linecap:round;stroke-linejoin:round;stroke-miterlimit:1.5;"><path d="M130.753,247.009l9.997,0l-20,19.991l-20,-19.991l9.997,0l0,-120.009l-9.997,0l20,-20l20,20l-9.997,0l0,120.009Z" style="fill:#b3bbe5;"/><rect x="20.75" y="187" width="60" height="220" style="fill:#ffa000;"/><g><rect x="200.75" y="274.47" width="60" height="132.53" style="fill:#f0f1fa;"/><rect x="200.75" y="306.1" width="60" height="100.9" style="fill:#b3bbe5;"/><rect x="200.75" y="335.6" width="60" height="71.4" style="fill:#3f51b5;"/></g><g><rect x="300.75" y="157" width="60" height="250" style="fill:#f0f1fa;"/><rect x="300.75" y="223.7" width="60" height="183.3" style="fill:#b3bbe5;"/><rect x="300.75" y="272.9" width="60" height="134.1" style="fill:#3f51b5;"/></g><g><rect x="400.75" y="0" width="60" height="407" style="fill:#f0f1fa;"/><rect x="400.75" y="154.1" width="60" height="252.9" style="fill:#b3bbe5;"/><rect x="400.75" y="223.7" width="60" height="183.3" style="fill:#3f51b5;"/></g><g><rect x="500.75" y="319.7" width="60" height="87.3" style="fill:#f0f1fa;"/><rect x="500.75" y="340.7" width="60" height="66.3" style="fill:#b3bbe5;"/><rect x="500.75" y="358.5" width="60" height="48.5" style="fill:#3f51b5;"/></g><g><rect x="600.75" y="263.2" width="60" height="143.8" style="fill:#f0f1fa;"/><rect x="600.75" y="353.3" width="60" height="53.7" style="fill:#b3bbe5;"/><rect x="600.75" y="374" width="60" height="33" style="fill:#3f51b5;"/></g><text x="212.066px" y="442.593px" style="font-family:'Arial-BoldMT', 'Arial', sans-serif;font-weight:700;font-size:16px;">circe</text><text x="30.301px" y="442.795px" style="font-family:'Arial-BoldMT', 'Arial', sans-serif;font-weight:700;font-size:16px;">borer</text><text x="139.41px" y="222.593px" style="font-family:'ArialMT', 'Arial', sans-serif;font-size:16px;">worse</text><text x="140.293px" y="162.593px" style="font-family:'ArialMT', 'Arial', sans-serif;font-size:16px;">better</text><g transform="matrix(1,0,0,1,-39.25,427.152)"><text x="71.324px" y="77.579px" style="font-family:'ArialMT', 'Arial', sans-serif;font-size:16px;">borer</text><text x="56.641px" y="95.579px" style="font-family:'ArialMT', 'Arial', sans-serif;font-size:16px;">speed-up</text><text x="69.992px" y="113.579px" style="font-family:'ArialMT', 'Arial', sans-serif;font-size:16px;">factor</text></g><g transform="matrix(1,0,0,1,-39.25,-53)"><text x="40px" y="77.18px" style="font-family:'Arial-BoldMT', 'Arial', sans-serif;font-weight:700;font-size:24px;">JSON Decoding Performance</text><text x="40px" y="107.18px" style="font-family:'ArialMT', 'Arial', sans-serif;font-size:16px;">Decoding throughput over 18 diverse,</text><text x="40px" y="125.18px" style="font-family:'ArialMT', 'Arial', sans-serif;font-size:16px;">real-world JSON data ﬁles</text></g><text x="298.73px" y="442.795px" style="font-family:'Arial-BoldMT', 'Arial', sans-serif;font-weight:700;font-size:16px;">Jackson</text><g transform="matrix(1,0,0,1,340.75,354.136)"><text x="56.215px" y="71.453px" style="font-family:'Arial-BoldMT', 'Arial', sans-serif;font-weight:700;font-size:16px;">Jsoniter-</text><text x="69.094px" y="87.977px" style="font-family:'Arial-BoldMT', 'Arial', sans-serif;font-weight:700;font-size:16px;">Scala</text></g><text x="603.012px" y="442.795px" style="font-family:'Arial-BoldMT', 'Arial', sans-serif;font-weight:700;font-size:16px;">µPickle</text><text x="509.402px" y="442.592px" style="font-family:'Arial-BoldMT', 'Arial', sans-serif;font-weight:700;font-size:16px;">spray</text><g transform="matrix(1,0,0,1,60.75,427)"><text x="64.887px" y="77.73px" style="font-family:'ArialMT', 'Arial', sans-serif;font-size:16px;">min:</text><text x="64.879px" y="95.73px" style="font-family:'ArialMT', 'Arial', sans-serif;font-size:16px;">avg:</text><text x="62.664px" y="113.73px" style="font-family:'ArialMT', 'Arial', sans-serif;font-size:16px;">max:</text></g><text x="214.068px" y="461.434px" style="font-family:'ArialMT', 'Arial', sans-serif;font-size:12px;">0.12.2</text><text x="37.405px" y="461.635px" style="font-family:'ArialMT', 'Arial', sans-serif;font-size:12px;">1.1.0</text><text x="314.068px" y="461.635px" style="font-family:'ArialMT', 'Arial', sans-serif;font-size:12px;">2.10.0</text><text x="417.405px" y="461.635px" style="font-family:'ArialMT', 'Arial', sans-serif;font-size:12px;">1.0.0</text><text x="617.405px" y="461.635px" style="font-family:'ArialMT', 'Arial', sans-serif;font-size:12px;">0.8.0</text><text x="517.405px" y="461.433px" style="font-family:'ArialMT', 'Arial', sans-serif;font-size:12px;">1.3.5</text><g transform="matrix(1,0,0,1,160.75,426.848)"><text x="54.43px" y="77.73px" style="font-family:'ArialMT', 'Arial', sans-serif;font-size:16px;">1.66</text><text x="54.43px" y="95.73px" style="font-family:'Arial-BoldMT', 'Arial', sans-serif;font-weight:700;font-size:16px;">2.18</text><text x="54.43px" y="113.73px" style="font-family:'ArialMT', 'Arial', sans-serif;font-size:16px;">3.08</text></g><g transform="matrix(1,0,0,1,260.75,426.848)"><text x="54.43px" y="77.73px" style="font-family:'ArialMT', 'Arial', sans-serif;font-size:16px;">0.88</text><text x="54.43px" y="95.73px" style="font-family:'Arial-BoldMT', 'Arial', sans-serif;font-weight:700;font-size:16px;">1.20</text><text x="54.43px" y="113.73px" style="font-family:'ArialMT', 'Arial', sans-serif;font-size:16px;">1.64</text></g><g transform="matrix(1,0,0,1,460.75,426.848)"><text x="54.43px" y="77.73px" style="font-family:'ArialMT', 'Arial', sans-serif;font-size:16px;">2.52</text><text x="54.43px" y="95.73px" style="font-family:'Arial-BoldMT', 'Arial', sans-serif;font-weight:700;font-size:16px;">3.32</text><text x="54.43px" y="113.73px" style="font-family:'ArialMT', 'Arial', sans-serif;font-size:16px;">4.54</text></g><g transform="matrix(1,0,0,1,360.75,426.848)"><text x="54.43px" y="77.73px" style="font-family:'ArialMT', 'Arial', sans-serif;font-size:16px;">0.52</text><text x="54.43px" y="95.73px" style="font-family:'Arial-BoldMT', 'Arial', sans-serif;font-weight:700;font-size:16px;">0.87</text><text x="54.43px" y="113.73px" style="font-family:'ArialMT', 'Arial', sans-serif;font-size:16px;">1.20</text></g><g transform="matrix(1,0,0,1,560.75,426.848)"><text x="54.43px" y="77.73px" style="font-family:'ArialMT', 'Arial', sans-serif;font-size:16px;">1.53</text><text x="54.43px" y="95.73px" style="font-family:'Arial-BoldMT', 'Arial', sans-serif;font-weight:700;font-size:16px;">4.10</text><text x="54.43px" y="113.73px" style="font-family:'ArialMT', 'Arial', sans-serif;font-size:16px;">6.67</text></g><path d="M680.75,187l-680,0" style="fill:none;stroke:#ffa000;stroke-width:1.5px;stroke-dasharray:6,6,0,0;"/></svg>